<?xml version="1.0" standalone="no"?>
<!DOCTYPE svg PUBLIC "-//W3C//DTD SVG 20010904//EN"
 "http://www.w3.org/TR/2001/REC-SVG-20010904/DTD/svg10.dtd">
<svg version="1.0" xmlns="http://www.w3.org/2000/svg"
 width="260.000000pt" height="260.000000pt" viewBox="0 0 260.000000 260.000000"
 preserveAspectRatio="xMidYMid meet">
<metadata>
Created by potrace 1.11, written by Peter Selinger 2001-2013
</metadata>
<g transform="translate(0.000000,260.000000) scale(0.100000,-0.100000)"
fill="#000000" stroke="none">
<path d="M1158 2590 c-184 -21 -385 -92 -544 -191 -539 -339 -754 -1018 -508
-1603 166 -393 511 -676 937 -768 133 -28 380 -30 502 -4 535 115 919 501
1032 1036 27 130 25 363 -6 499 -89 402 -338 725 -699 906 -203 101 -488 151
-714 125z m-414 -1008 c46 -70 97 -154 114 -188 88 -176 80 -311 -27 -407 -56
-50 -104 -69 -181 -70 -110 -1 -198 50 -245 143 -48 95 -41 180 25 319 49 102
208 343 221 335 5 -3 47 -62 93 -132z m640 11 c186 -282 220 -406 148 -538
-51 -93 -169 -154 -269 -139 -91 13 -174 70 -216 149 -31 57 -30 178 2 257 32
83 228 398 247 398 2 0 41 -57 88 -127z m643 5 c147 -224 183 -305 183 -418 0
-152 -112 -262 -270 -263 -81 -1 -142 25 -198 82 -99 102 -95 259 12 440 50
86 180 281 187 281 3 0 42 -55 86 -122z"/>
</g>
</svg>
